<?xml version="1.0" encoding="UTF-8" standalone="no"?>
<svg
   height="48px"
   viewBox="0 -960 960 960"
   width="48px"
   fill="#1f1f1f"
   version="1.1"
   id="svg1"
   sodipodi:docname="bigtop-updates-symbolic.svg"
   inkscape:version="1.4.2 (ebf0e940d0, 2025-05-08)"
   xmlns:inkscape="http://www.inkscape.org/namespaces/inkscape"
   xmlns:sodipodi="http://sodipodi.sourceforge.net/DTD/sodipodi-0.dtd"
   xmlns="http://www.w3.org/2000/svg"
   xmlns:svg="http://www.w3.org/2000/svg">
  <defs
     id="defs1" />
  <sodipodi:namedview
     id="namedview1"
     pagecolor="#ffffff"
     bordercolor="#000000"
     borderopacity="0.25"
     inkscape:showpageshadow="2"
     inkscape:pageopacity="0.0"
     inkscape:pagecheckerboard="0"
     inkscape:deskcolor="#d1d1d1"
     inkscape:zoom="18.375"
     inkscape:cx="23.972789"
     inkscape:cy="23.972789"
     inkscape:window-width="2494"
     inkscape:window-height="1371"
     inkscape:window-x="2626"
     inkscape:window-y="32"
     inkscape:window-maximized="1"
     inkscape:current-layer="svg1" />
  <path
     d="m 149.90975,-241.70575 q -66.102,-66.9185 -101.867,-151.6735 -35.765,-84.755 -35.765,-178.3995 0,-93.6445 35.489,-178.5375 35.489,-84.893 102.143,-151.5355 l 44.1025,44.1025 q -56.626,58.0405 -87.952,131.4795 -31.326,73.439 -31.326,154.491 0,81.052 31.326,154.491 31.326,73.439 87.952,131.4795 z m 109.3765,-109.3765 q -44.252,-43.976 -67.666,-101.0045 -23.414,-57.04 -23.414,-119.692 0,-62.652 23.414,-119.692 23.414,-57.0285 67.666,-101.0045 l 43.8265,43.5505 q -34.5,35.374 -53.337,81.098 -18.8485,45.724 -18.8485,96.048 0,50.324 18.8485,95.473 18.837,45.149 53.337,81.397 z m 181.516,289.984 v -409.032 q -32.4645,-11.454 -51.3015,-39.5945 -18.8485,-28.152 -18.8485,-62.054 0,-45.6205 31.855,-77.4755 31.855,-31.855 77.4755,-31.855 45.6205,0 77.4755,31.855 31.855,31.855 31.855,77.4755 0,33.902 -18.8485,62.054 -18.837,28.1405 -51.3015,39.5945 v 409.032 z m 259.877,-289.984 -43.5505,-43.8265 q 34.224,-36.248 53.061,-81.397 18.8485,-45.149 18.8485,-95.473 0,-50.324 -18.8485,-95.473 -18.837,-45.149 -53.061,-81.673 l 43.5505,-43.5505 q 44.252,43.976 67.528,101.0045 23.276,57.04 23.552,119.692 0.276,62.652 -23.276,119.554 -23.552,56.8905 -67.804,101.1425 z m 109.3765,109.3765 -44.1025,-44.1025 q 56.626,-58.0405 88.09,-131.4795 31.464,-73.439 31.464,-154.491 0,-81.052 -31.464,-154.491 -31.464,-73.439 -88.09,-131.4795 l 43.8265,-44.1025 q 66.378,66.6425 102.281,151.5355 35.8915,84.893 35.8915,178.5375 0,93.6445 -35.8915,178.3995 -35.903,84.755 -102.005,151.6735 z"
     id="path1"
     style="stroke-width:1.15;fill:#000000" />
</svg>
