<?xml version="1.0" encoding="UTF-8" standalone="no"?>
<svg
   height="48px"
   viewBox="0 -960 960 960"
   width="48px"
   fill="#1f1f1f"
   version="1.1"
   id="svg1"
   sodipodi:docname="calculate-symbolic.svg"
   inkscape:version="1.4.2 (ebf0e940d0, 2025-05-08)"
   xmlns:inkscape="http://www.inkscape.org/namespaces/inkscape"
   xmlns:sodipodi="http://sodipodi.sourceforge.net/DTD/sodipodi-0.dtd"
   xmlns="http://www.w3.org/2000/svg"
   xmlns:svg="http://www.w3.org/2000/svg">
  <defs
     id="defs1" />
  <sodipodi:namedview
     id="namedview1"
     pagecolor="#ffffff"
     bordercolor="#000000"
     borderopacity="0.25"
     inkscape:showpageshadow="2"
     inkscape:pageopacity="0.0"
     inkscape:pagecheckerboard="0"
     inkscape:deskcolor="#d1d1d1"
     inkscape:zoom="18.375"
     inkscape:cx="24"
     inkscape:cy="23.972789"
     inkscape:window-width="2494"
     inkscape:window-height="1371"
     inkscape:window-x="2626"
     inkscape:window-y="32"
     inkscape:window-maximized="1"
     inkscape:current-layer="svg1" />
  <path
     d="m 282.096,-178.896 h 60 v -105.6 h 105.6 v -60 h -105.6 v -105.6 h -60 v 105.6 h -105.6 v 60 h 105.6 z m 255.408,-42 h 241.2 v -58.8 h -241.2 z m 0,-128.4 h 241.2 v -60 h -241.2 z m -343.008,-280.56 h 235.2 v -60 h -235.2 z m -72.06,589.176 q -33.12,0 -57.432,-24.324 Q 40.68,-89.316 40.68,-122.436 v -714.84 q 0,-33.24 24.324,-57.636 24.312,-24.408 57.432,-24.408 h 714.84 q 33.24,0 57.636,24.408 24.408,24.396 24.408,57.636 v 714.84 q 0,33.12 -24.408,57.432 -24.396,24.324 -57.636,24.324 z m 459.468,-501.624 73.2,-73.2 73.2,73.2 43.2,-43.2 -73.2,-73.2 73.2,-73.2 -43.2,-43.2 -73.2,73.2 -73.2,-73.2 -43.2,43.2 73.2,73.2 -73.2,73.2 z"
     id="path1"
     style="fill:#000000;stroke-width:1.2" />
</svg>
