<?xml version="1.0" encoding="UTF-8" standalone="no"?>
<svg
   height="48px"
   viewBox="0 -960 960 960"
   width="48px"
   fill="#1f1f1f"
   version="1.1"
   id="svg1"
   sodipodi:docname="cell_tower_48dp_1F1F1F_FILL1_wght500_GRAD0_opsz48.svg"
   inkscape:version="1.4.2 (ebf0e940d0, 2025-05-08)"
   xmlns:inkscape="http://www.inkscape.org/namespaces/inkscape"
   xmlns:sodipodi="http://sodipodi.sourceforge.net/DTD/sodipodi-0.dtd"
   xmlns="http://www.w3.org/2000/svg"
   xmlns:svg="http://www.w3.org/2000/svg">
  <defs
     id="defs1" />
  <sodipodi:namedview
     id="namedview1"
     pagecolor="#ffffff"
     bordercolor="#000000"
     borderopacity="0.25"
     inkscape:showpageshadow="2"
     inkscape:pageopacity="0.0"
     inkscape:pagecheckerboard="0"
     inkscape:deskcolor="#d1d1d1"
     inkscape:zoom="18.375"
     inkscape:cx="24"
     inkscape:cy="23.972789"
     inkscape:window-width="2494"
     inkscape:window-height="1371"
     inkscape:window-x="2626"
     inkscape:window-y="32"
     inkscape:window-maximized="1"
     inkscape:current-layer="svg1" />
  <path
     d="m 150.34675,-260.75825 q -69.828,-67.2405 -104.006,-155.0085 -34.178,-87.768 -34.178,-174.5125 0,-86.7445 33.902,-174.2365 33.902,-87.492 104.282,-155.5605 l 43.8265,44.1025 q -58.052,56.8905 -88.803,134.6535 -30.751,77.763 -30.751,151.041 0,73.278 30.751,151.041 30.751,77.763 88.803,134.6535 z m 108.5485,-108.5485 q -46.828,-43.378 -68.816,-103.615 -21.988,-60.237 -21.988,-117.3575 0,-55.476 21.712,-116.265 21.712,-60.789 69.092,-104.7075 l 43.8265,43.8265 q -33.35,33.626 -52.624,83.375 -19.2855,49.749 -19.2855,93.771 0,39.974 19.5845,90.597 19.573,50.623 52.325,86.549 z m 4.048,329.383 154.33,-458.8845 q -20.378,-14.076 -33.557,-37.2945 -13.179,-23.23 -13.179,-54.1765 0,-45.8965 31.717,-77.6135 31.717,-31.717 77.6135,-31.717 45.8965,0 77.6135,31.717 31.717,31.717 31.717,77.6135 0,30.9465 -13.179,53.9005 -13.179,22.954 -33.557,37.5705 l 154.33,458.8845 h -72.519 l -33.902,-103.5 h -219.857 l -35.052,103.5 z m 130.249,-172.5 h 173.351 l -86.6755,-261.878 z m 307.648,-156.883 -43.8265,-43.8265 q 33.626,-33.626 52.762,-83.375 19.1475,-49.749 19.1475,-93.771 0,-39.974 -19.5845,-90.597 -19.573,-50.623 -52.325,-86.549 l 43.8265,-43.8265 q 46.23,43.9185 68.655,104.7075 22.425,60.789 22.149,116.265 0,54.326 -22.287,115.69 -22.287,61.364 -68.517,105.2825 z m 108.8245,108.5485 -44.1025,-43.8265 q 56.902,-56.8905 88.366,-134.6535 31.464,-77.763 31.464,-151.041 0,-73.278 -31.464,-151.041 -31.464,-77.763 -88.366,-134.6535 l 44.1025,-44.1025 q 70.104,68.0685 104.144,155.5605 34.0285,87.492 34.0285,174.2365 0,87.63 -32.3035,174.6735 -32.315,87.055 -105.869,154.8475 z"
     id="path1"
     style="fill:#000000;stroke-width:1.15" />
</svg>
