<?xml version="1.0" encoding="UTF-8" standalone="no"?>
<!-- Uploaded to: SVG Repo, www.svgrepo.com, Generator: SVG Repo Mixer Tools -->

<svg
   fill="#000000"
   height="800px"
   width="800px"
   version="1.1"
   id="Layer_1"
   viewBox="0 0 512 512"
   xml:space="preserve"
   sodipodi:docname="coordinates-symbolic.svg"
   inkscape:version="1.4.2 (ebf0e940d0, 2025-05-08)"
   xmlns:inkscape="http://www.inkscape.org/namespaces/inkscape"
   xmlns:sodipodi="http://sodipodi.sourceforge.net/DTD/sodipodi-0.dtd"
   xmlns="http://www.w3.org/2000/svg"
   xmlns:svg="http://www.w3.org/2000/svg"><defs
   id="defs6">
	

		
	
			
			
			
			
		</defs><sodipodi:namedview
   id="namedview6"
   pagecolor="#ffffff"
   bordercolor="#000000"
   borderopacity="0.25"
   inkscape:showpageshadow="2"
   inkscape:pageopacity="0.0"
   inkscape:pagecheckerboard="0"
   inkscape:deskcolor="#d1d1d1"
   inkscape:zoom="0.77958523"
   inkscape:cx="413.68152"
   inkscape:cy="350.82758"
   inkscape:window-width="2494"
   inkscape:window-height="1371"
   inkscape:window-x="2626"
   inkscape:window-y="32"
   inkscape:window-maximized="1"
   inkscape:current-layer="Layer_1" />
<path
   d="m 128.47391,412.18665 c 0.46835,-0.4693 0.912,-0.9614 1.33285,-1.4744 0.19285,-0.23465 0.36005,-0.48165 0.54055,-0.72295 0.21565,-0.28785 0.4389,-0.57 0.63935,-0.8702 0.19285,-0.2888 0.36005,-0.58805 0.53675,-0.88445 0.16245,-0.2717 0.3325,-0.53675 0.4826,-0.81605 0.1615,-0.3021 0.2983,-0.6118 0.44365,-0.92055 0.13775,-0.29165 0.2831,-0.57855 0.40755,-0.87685 0.1235,-0.29925 0.2242,-0.60515 0.3325,-0.90915 0.11495,-0.32015 0.2375,-0.63555 0.33725,-0.9633 0.0922,-0.304 0.1596,-0.61275 0.23655,-0.9196 0.0846,-0.33345 0.17765,-0.6631 0.2451,-1.0032 0.0703,-0.35625 0.1121,-0.71535 0.1634,-1.0735 0.0418,-0.29545 0.0988,-0.5871 0.12825,-0.88635 0.1311,-1.33 0.1311,-2.67045 0,-4.00045 -0.0294,-0.29925 -0.0855,-0.58995 -0.12825,-0.8854 -0.0513,-0.3591 -0.0931,-0.7182 -0.16435,-1.0735 -0.0674,-0.3401 -0.16055,-0.6688 -0.2451,-1.00225 -0.077,-0.3078 -0.1444,-0.61655 -0.23655,-0.92055 -0.0988,-0.3268 -0.22135,-0.64315 -0.3363,-0.96235 -0.10925,-0.304 -0.209,-0.6099 -0.3325,-0.90915 -0.12445,-0.29925 -0.2698,-0.58615 -0.40755,-0.8778 -0.14535,-0.3078 -0.2812,-0.6175 -0.4427,-0.9196 -0.1501,-0.28025 -0.3211,-0.54625 -0.48355,-0.81795 -0.1767,-0.29545 -0.3439,-0.5947 -0.53675,-0.88255 -0.2014,-0.3002 -0.42465,-0.5833 -0.64125,-0.8721 -0.1805,-0.24035 -0.34675,-0.4864 -0.53865,-0.72105 -0.8474,-1.03265 -1.79455,-1.98075 -2.82815,-2.82815 -0.2337,-0.1919 -0.47975,-0.35815 -0.71915,-0.5377 -0.28975,-0.2166 -0.57285,-0.4408 -0.87305,-0.6422 -0.28785,-0.19285 -0.58615,-0.3591 -0.8816,-0.5358 -0.27265,-0.16245 -0.53865,-0.33345 -0.8189,-0.4845 -0.30115,-0.16055 -0.6099,-0.29735 -0.91675,-0.44175 -0.2926,-0.1387 -0.58045,-0.28405 -0.88065,-0.4085 -0.29735,-0.1235 -0.60135,-0.2223 -0.90345,-0.3306 -0.32205,-0.1159 -0.63935,-0.2394 -0.96805,-0.3382 -0.3021,-0.0912 -0.60895,-0.15865 -0.91485,-0.2356 -0.33535,-0.0846 -0.6669,-0.1786 -1.00795,-0.24605 -0.3534,-0.0703 -0.70965,-0.11115 -1.0659,-0.16245 -0.2983,-0.0428 -0.59185,-0.0998 -0.89395,-0.1292 -0.665,-0.0655 -1.3319,-0.1007 -1.99975,-0.1007 H 33.066356 c -11.1929,0 -20.26635,9.07345 -20.26635,20.26635 0,11.1929 9.07345,20.26635 20.26635,20.26635 h 32.1385 l -46.46925,46.4702 c -0.0038,0.004 -0.0057,0.008 -0.0095,0.0105 -0.46835,0.4693 -0.912,0.9614 -1.33285,1.4744 -0.19285,0.23465 -0.36005,0.48165 -0.54055,0.72295 -0.21565,0.28785 -0.4389,0.57 -0.63935,0.8702 -0.19285,0.2888 -0.36005,0.58805 -0.53675,0.88445 -0.16245,0.2717 -0.3325,0.53675 -0.4826,0.81605 -0.1615,0.3021 -0.2983,0.6118 -0.44365,0.92055 -0.13775,0.29165 -0.2831,0.57855 -0.40755,0.87685 -0.1235,0.29925 -0.2242,0.60515 -0.3325,0.90915 -0.11495,0.32015 -0.2375,0.63555 -0.3363,0.96235 -0.09215,0.304 -0.1596,0.6137 -0.23655,0.92055 -0.08455,0.33345 -0.17765,0.6631 -0.2451,1.00225 -0.0703,0.35625 -0.11305,0.71535 -0.16435,1.0735 -0.0418,0.29545 -0.0988,0.58615 -0.12825,0.88635 -0.1311,1.33 -0.1311,2.67045 0,4.00045 0.02945,0.29925 0.0855,0.58995 0.12825,0.88635 0.0513,0.35815 0.0931,0.7182 0.16435,1.0735 0.06745,0.3401 0.16055,0.6688 0.2451,1.00225 0.07695,0.3078 0.1444,0.61655 0.23655,0.92055 0.0988,0.3268 0.22135,0.64315 0.3363,0.96235 0.10925,0.304 0.209,0.6099 0.3325,0.90915 0.1235,0.29925 0.2698,0.5852 0.40755,0.87685 0.14535,0.3078 0.28215,0.61845 0.44365,0.92055 0.1501,0.2793 0.32015,0.54435 0.4826,0.81605 0.1767,0.29545 0.3439,0.59565 0.53675,0.88445 0.20045,0.3002 0.4237,0.5814 0.63935,0.8702 0.1805,0.2413 0.3477,0.4883 0.54055,0.72295 0.42085,0.513 0.8645,1.00605 1.33285,1.4744 0.0038,0.004 0.0057,0.008 0.0095,0.0104 0.0038,0.004 0.0076,0.007 0.0114,0.0105 0.46835,0.4674 0.9614,0.91105 1.47345,1.3319 0.23465,0.19285 0.48165,0.36005 0.722,0.5396 0.2888,0.21565 0.57095,0.43985 0.87115,0.6403 0.28785,0.19285 0.5871,0.36005 0.8835,0.53675 0.2717,0.16245 0.53675,0.3325 0.817,0.4826 0.3021,0.1615 0.61275,0.2983 0.92055,0.44365 0.29165,0.13775 0.57855,0.2831 0.87685,0.4066 0.29925,0.1235 0.6042,0.22325 0.9082,0.3325 0.32015,0.11495 0.6365,0.2375 0.96425,0.33725 0.304,0.0922 0.61275,0.1596 0.9196,0.23655 0.33345,0.0845 0.6631,0.17765 1.0032,0.2451 0.35625,0.0703 0.71535,0.1121 1.0735,0.1634 0.29545,0.0418 0.5871,0.0988 0.88635,0.12825 0.665,0.0656 1.3319,0.1007 1.9988,0.1007 0,0 9.5e-4,0 9.5e-4,0 h 81.066354 c 11.1929,0 20.26635,-9.07345 20.26635,-20.26635 0,-11.1929 -9.07345,-20.26635 -20.26635,-20.26635 H 81.994206 l 46.469254,-46.4693 c 0.004,-0.003 0.007,-0.007 0.0104,-0.0104 z"
   id="path1"
   style="stroke-width:0.82176;stroke-dasharray:none" /><path
   d="m 467.06151,438.4 26.2029,-26.2029 c 7.91445,-7.91445 7.91445,-20.74705 0,-28.6615 -7.91445,-7.91445 -20.74705,-7.91445 -28.6615,0 l -26.2029,26.2029 -26.2029,-26.2029 c -7.91445,-7.91445 -20.74705,-7.91445 -28.6615,0 -7.91445,7.91445 -7.91445,20.74705 0,28.6615 l 26.2029,26.2029 -26.2029,26.2029 c -7.91445,7.91445 -7.91445,20.74705 0,28.6615 7.91445,7.91445 20.74705,7.91445 28.6615,0 l 26.2029,-26.2029 26.2029,26.2029 c 7.91445,7.91445 20.74705,7.91445 28.6615,0 7.91445,-7.91445 7.91445,-20.74705 0,-28.6615 z"
   id="path2"
   style="stroke-width:0.82176;stroke-dasharray:none" /><path
   d="m 235.73366,81.99515 v 32.1385 c 0,11.1929 9.07345,20.26635 20.26635,20.26635 11.1929,0 20.26635,-9.07345 20.26635,-20.26635 v -32.1385 l 34.5971,-34.5971 c 7.91445,-7.91445 7.91445,-20.74705 0,-28.6615 -7.91445,-7.91445 -20.74705,-7.91445 -28.6615,0 L 256.00001,44.9385 229.79711,18.7356 c -7.91445,-7.91445 -20.74705,-7.91445 -28.6615,0 -7.91445,7.91445 -7.91445,20.74705 0,28.6615 z"
   id="path3"
   style="stroke-width:0.82176;stroke-dasharray:none" /><path
   d="m 369.99431,341.5076 -93.727,-74.9816 v -91.59235 c 0,-11.1929 -9.07345,-20.26635 -20.26635,-20.26635 -11.1929,0 -20.26635,9.07345 -20.26635,20.26635 V 266.526 l -93.727,74.9816 c -8.74,6.992 -10.1574,19.74575 -3.1654,28.48575 6.992,8.74 19.74575,10.1574 28.48575,3.1654 l 88.67205,-70.9384 88.673,70.9384 c 8.74,6.992 21.49375,5.57555 28.48575,-3.1654 6.992,-8.74 5.57555,-21.49375 -3.16445,-28.48575 z"
   id="path4"
   style="stroke-width:0.82176;stroke-dasharray:none" />
</svg>
