<?xml version="1.0" encoding="UTF-8" standalone="no"?>
<svg
   height="48px"
   viewBox="0 -960 960 960"
   width="48px"
   fill="#1f1f1f"
   version="1.1"
   id="svg1"
   sodipodi:docname="dark_mode_48dp_1F1F1F_FILL1_wght500_GRAD0_opsz48.svg"
   inkscape:version="1.4.2 (ebf0e940d0, 2025-05-08)"
   xmlns:inkscape="http://www.inkscape.org/namespaces/inkscape"
   xmlns:sodipodi="http://sodipodi.sourceforge.net/DTD/sodipodi-0.dtd"
   xmlns="http://www.w3.org/2000/svg"
   xmlns:svg="http://www.w3.org/2000/svg">
  <defs
     id="defs1" />
  <sodipodi:namedview
     id="namedview1"
     pagecolor="#ffffff"
     bordercolor="#000000"
     borderopacity="0.25"
     inkscape:showpageshadow="2"
     inkscape:pageopacity="0.0"
     inkscape:pagecheckerboard="0"
     inkscape:deskcolor="#d1d1d1"
     inkscape:zoom="18.375"
     inkscape:cx="24"
     inkscape:cy="23.972789"
     inkscape:window-width="2494"
     inkscape:window-height="1371"
     inkscape:window-x="2626"
     inkscape:window-y="32"
     inkscape:window-maximized="1"
     inkscape:current-layer="svg1" />
  <path
     d="M 479.808,-44.7 Q 298.32,-44.7 171.504,-171.504 44.7,-298.32 44.7,-479.808 44.7,-661.296 171.528,-788.292 298.344,-915.3 479.856,-915.3 q 9.024,0 19.248,0.456 10.236,0.456 26.748,1.656 -40.62,39.552 -63.192,94.656 -22.56,55.116 -22.56,115.788 0,109.464 76.764,186.192 76.752,76.74 186.456,76.74 60.384,0 115.644,-20.628 55.248,-20.616 94.512,-57.924 0.912,14.112 1.368,22.464 0.456,8.34 0.456,15.756 0,181.44 -127.008,308.436 Q 661.296,-44.7 479.808,-44.7 Z"
     id="path1"
     style="fill:#000000;stroke-width:1.2" />
</svg>
