<?xml version="1.0" encoding="UTF-8" standalone="no"?>
<svg
   height="48px"
   viewBox="0 -960 960 960"
   width="48px"
   fill="#1f1f1f"
   version="1.1"
   id="svg1"
   sodipodi:docname="dashboard-symbolic.svg"
   inkscape:version="1.4.2 (ebf0e940d0, 2025-05-08)"
   xmlns:inkscape="http://www.inkscape.org/namespaces/inkscape"
   xmlns:sodipodi="http://sodipodi.sourceforge.net/DTD/sodipodi-0.dtd"
   xmlns="http://www.w3.org/2000/svg"
   xmlns:svg="http://www.w3.org/2000/svg">
  <defs
     id="defs1">
    <inkscape:path-effect
       effect="fillet_chamfer"
       id="path-effect1"
       is_visible="true"
       lpeversion="1"
       nodesatellites_param="F,0,0,1,0,82.53774,0,1 @ F,0,0,1,0,77.376002,0,1 @ F,0,0,1,0,77.375989,0,1 @ F,0,0,1,0,77.376002,0,1 | F,0,0,1,0,77.376002,0,1 @ F,0,0,1,0,77.376008,0,1 @ F,0,0,1,0,77.376002,0,1 @ F,0,0,1,0,77.376003,0,1 | F,0,0,1,0,77.376002,0,1 @ F,0,0,1,0,77.376002,0,1 @ F,0,0,1,0,77.376002,0,1 @ F,0,0,1,0,77.330765,0,1 | F,0,0,1,0,77.376001,0,1 @ F,0,0,1,0,77.376002,0,1 @ F,0,0,1,0,77.376003,0,1 @ F,0,0,1,0,77.33694,0,1 | F,0,0,1,0,38.687994,0,1 @ F,0,0,1,0,37.338673,0,1 @ F,0,0,1,0,38.687994,0,1 @ F,0,0,1,0,38.688002,0,1 | F,0,0,1,0,38.680967,0,1 @ F,0,0,1,0,38.688003,0,1 @ F,0,0,1,0,34.307983,0,1 @ F,0,0,1,0,38.436013,0,1 | F,0,0,1,0,38.436013,0,1 @ F,0,0,1,0,38.665383,0,1 @ F,0,0,1,0,38.665379,0,1 @ F,0,0,1,0,38.681643,0,1 | F,0,0,1,0,38.688002,0,1 @ F,0,0,1,0,38.688002,0,1 @ F,0,0,1,0,38.688002,0,1 @ F,0,0,1,0,38.688002,0,1"
       radius="4"
       unit="px"
       method="auto"
       mode="F"
       chamfer_steps="1"
       flexible="false"
       use_knot_distance="true"
       apply_no_radius="true"
       apply_with_radius="true"
       only_selected="false"
       hide_knots="false" />
  </defs>
  <sodipodi:namedview
     id="namedview1"
     pagecolor="#ffffff"
     bordercolor="#000000"
     borderopacity="0.25"
     inkscape:showpageshadow="2"
     inkscape:pageopacity="0.0"
     inkscape:pagecheckerboard="0"
     inkscape:deskcolor="#d1d1d1"
     inkscape:zoom="16.000001"
     inkscape:cx="21.718749"
     inkscape:cy="22.906249"
     inkscape:window-width="2494"
     inkscape:window-height="1371"
     inkscape:window-x="2626"
     inkscape:window-y="32"
     inkscape:window-maximized="1"
     inkscape:current-layer="svg1"
     showgrid="true">
    <inkscape:grid
       id="grid2"
       units="px"
       originx="0"
       originy="0"
       spacingx="20"
       spacingy="20"
       empcolor="#0099e5"
       empopacity="0.30196078"
       color="#0099e5"
       opacity="0.14901961"
       empspacing="5"
       enabled="true"
       visible="true"
       dotted="false" />
  </sodipodi:namedview>
  <path
     d="m 518.68801,-678.80179 v -168.74202 a 77.365374,77.365374 135.00394 0 1 77.376,-77.36537 l 251.472,0.0345 a 77.386623,77.386623 45.003933 0 1 77.37599,77.38662 l 2e-5,173.84797 a 77.375997,77.375997 135 0 1 -77.376,77.376 H 601.22575 a 82.53774,82.53774 45 0 1 -82.53774,-82.53774 z m -483.600011,159.82327 10e-7,-328.50947 a 77.386637,77.386637 134.99606 0 1 77.37601,-77.38664 l 251.472,-0.0345 a 77.365374,77.365374 44.996065 0 1 77.376,77.36537 v 328.56529 a 77.376001,77.376001 135 0 1 -77.376,77.376 l -251.47201,-1e-5 a 77.376004,77.376004 45.000001 0 1 -77.376001,-77.376 z M 518.68801,-112.992 v -328.56529 a 77.376002,77.376002 135 0 1 77.376,-77.376 h 251.47201 a 77.375999,77.375999 45.000001 0 1 77.376,77.376 l -2e-5,328.61053 A 77.330768,77.330768 135 0 1 847.58124,-35.616 l -251.51723,10e-7 a 77.376002,77.376002 45 0 1 -77.376,-77.376001 z m -483.60001,0 -10e-7,-193.23645 a 77.376002,77.376002 135 0 1 77.376001,-77.376 l 251.47201,0 a 78.361436,78.361436 44.637464 0 1 78.35516,77.36981 l 2.44617,193.28789 A 76.36439,76.36439 134.63746 0 1 368.37906,-35.616 H 112.464 a 77.376001,77.376001 45 0 1 -77.376,-77.376 z m 116.06346,-406.14538 175.47039,-0.92565 a 37.533412,37.533412 134.84678 0 0 37.33541,-37.53564 l -0.0184,-251.30238 a 38.690831,38.690831 44.9979 0 0 -38.69083,-38.68799 l -174.09601,0 a 38.688002,38.688002 135 0 0 -38.688,38.688 v 251.27976 a 38.484443,38.484443 44.848876 0 0 38.68746,38.4839 z m 483.59352,406.19061 h 174.10304 a 38.173692,38.173692 134.61662 0 0 38.17027,-38.68454 l -3.40317,-254.28378 A 34.770212,34.770212 44.616617 0 0 808.84802,-440.22 H 634.75201 a 38.465619,38.465619 135.02206 0 0 -38.4656,38.436 l -0.19262,250.15627 a 38.651195,38.651195 45.022058 0 0 38.65119,38.68096 z m 0.007,-560.02904 174.11895,-0.50653 a 38.778027,38.778027 134.91666 0 0 38.66522,-38.77786 v -96.66346 a 38.665379,38.665379 45 0 0 -38.66538,-38.66538 H 634.74565 a 38.625896,38.625896 134.95868 0 0 -38.62585,38.6816 l 0.14077,97.60747 a 38.379674,38.379674 44.875345 0 0 38.49128,38.32416 z M 151.152,-112.94677 h 174.09601 a 38.688,38.688 135 0 0 38.688,-38.688 l -1e-5,-115.95091 a 38.688004,38.688004 44.999999 0 0 -38.688,-38.688 H 151.152 a 38.688002,38.688002 135 0 0 -38.688,38.688 l 0,115.95091 a 38.688002,38.688002 45 0 0 38.688,38.688 z"
     id="path1"
     style="stroke-width:1.2;fill:#000000"
     inkscape:label="path1"
     inkscape:original-d="m 518.68801,-596.26405 v -328.65576 l 406.22399,0.0558 2e-5,328.59996 z m -483.600011,154.66153 10e-7,-483.26148 406.22401,-0.0558 v 483.31729 z M 518.68801,-35.615999 V -518.93329 H 924.91202 L 924.912,-35.616 Z M 35.088,-35.616 l -10e-7,-347.98845 H 441.31201 L 445.716,-35.616 Z M 112.464,-518.93329 363.96,-520.26 363.936,-847.58904 H 112.464 Z m 483.60001,405.98652 H 847.53602 L 843.156,-440.22 h -246.84 z m 0.25199,-559.91723 251.22002,-0.73082 0,-173.99422 H 596.06401 Z m -483.852,559.91723 h 251.47201 l -1e-5,-193.32691 H 112.464 Z"
     inkscape:path-effect="#path-effect1"
     transform="matrix(1.0339123,0,0,1.0345171,-16.277914,16.84536)"
     sodipodi:nodetypes="cccccccccccccccccccccccccccccccccccccccc" />
</svg>
