<?xml version="1.0" encoding="UTF-8" standalone="no"?>
<svg
   height="48px"
   viewBox="0 -960 960 960"
   width="48px"
   fill="#1f1f1f"
   version="1.1"
   id="svg1"
   sodipodi:docname="graph3-symbolic.svg"
   inkscape:version="1.4.2 (ebf0e940d0, 2025-05-08)"
   xmlns:inkscape="http://www.inkscape.org/namespaces/inkscape"
   xmlns:sodipodi="http://sodipodi.sourceforge.net/DTD/sodipodi-0.dtd"
   xmlns="http://www.w3.org/2000/svg"
   xmlns:svg="http://www.w3.org/2000/svg">
  <defs
     id="defs1" />
  <sodipodi:namedview
     id="namedview1"
     pagecolor="#ffffff"
     bordercolor="#000000"
     borderopacity="0.25"
     inkscape:showpageshadow="2"
     inkscape:pageopacity="0.0"
     inkscape:pagecheckerboard="0"
     inkscape:deskcolor="#d1d1d1"
     inkscape:zoom="8"
     inkscape:cx="33.0625"
     inkscape:cy="46.4375"
     inkscape:window-width="2494"
     inkscape:window-height="1371"
     inkscape:window-x="2626"
     inkscape:window-y="32"
     inkscape:window-maximized="1"
     inkscape:current-layer="svg1" />
  <path
     d="m 481.105,-33.41 q -54.34,0 -92.356,-37.213 -38.005,-37.202 -38.005,-92.092 0,-8.272 1.1,-15.158 1.1,-6.886 3.036,-14.421 l -104.742,-58.608 q -16.929,16.764 -39.193,26.532 -22.275,9.768 -48.18,9.768 -54.34,0 -92.367,-37.697 -38.038,-37.697 -38.038,-91.553 0,-53.856 37.235,-91.729 37.235,-37.884 92.147,-37.884 27.918,0 52.393,11.088 24.464,11.077 42.823,30.404 l 143.715,-72.116 q -4.708,-27.555 2.728,-54.131 7.436,-26.576 25.344,-47.795 l -45.848,-68.024 q -9.372,3.3 -19.019,4.686 -9.647,1.386 -19.932,1.386 -54.329,0 -92.367,-37.697 -38.027,-37.697 -38.027,-91.553 0,-53.856 37.928,-91.729 37.917,-37.884 92.092,-37.884 54.186,0 91.509,37.796 37.334,37.785 37.334,91.773 0,23.353 -7.7,43.967 -7.7,20.614 -22,37.378 l 45.254,68.607 q 8.998,-3.3 19.58,-4.95 10.582,-1.65 21.582,-1.65 18.447,0 34.738,5.654 16.302,5.654 30.877,14.509 l 83.479,-68.871 q -5.236,-11.451 -7.722,-23.485 -2.486,-12.023 -2.486,-25.872 0,-54.791 37.213,-92.136 37.213,-37.356 91.553,-37.356 54.34,0 92.213,37.752 37.884,37.752 37.884,91.685 0,53.933 -37.796,91.124 -37.785,37.202 -91.773,37.202 -20.614,0 -39.028,-5.577 -18.425,-5.566 -34.045,-16.687 l -78.958,65.714 q 6.281,12.848 9.295,26.719 3.014,13.871 3.014,29.183 0,53.878 -37.785,91.586 -37.785,37.719 -91.773,37.719 -29.656,0 -53.933,-11.946 -24.288,-11.946 -42.416,-31.702 l -142.659,72.699 q 1.936,12.958 1.474,25.927 -0.462,12.958 -3.674,25.916 l 103.378,58.179 q 17.974,-16.5 41.547,-26.4 23.562,-9.9 49.39,-9.9 53.526,0 90.992,37.785 37.466,37.774 37.466,91.74 0,53.867 -37.477,91.597 -37.477,37.741 -91.014,37.741 z M 162.908,-287.708 q 23.419,0 39.314,-16.456 15.895,-16.467 15.895,-39.809 0,-23.342 -15.895,-39.864 -15.884,-16.522 -39.38,-16.522 -23.496,0 -40.436,16.522 -16.94,16.522 -16.94,39.93 0,23.419 17.017,39.809 17.017,16.39 40.425,16.39 z M 344.1,-739.973 q 23.419,0 39.314,-16.467 15.895,-16.467 15.895,-39.798 0,-23.342 -15.895,-39.864 -15.895,-16.522 -39.38,-16.522 -23.496,0 -40.436,16.522 -16.94,16.511 -16.94,39.93 0,23.419 17.006,39.809 17.017,16.39 40.436,16.39 z m 136.015,633.457 q 23.331,0 39.853,-16.467 16.533,-16.467 16.533,-39.798 0,-23.342 -16.522,-39.864 -16.522,-16.522 -39.941,-16.522 -23.408,0 -39.798,16.522 -16.401,16.511 -16.401,39.93 0,23.419 16.467,39.809 16.467,16.39 39.809,16.39 z m 47.993,-361.636 q 23.331,0 39.853,-16.467 16.533,-16.467 16.533,-39.798 0,-23.342 -16.522,-39.864 -16.522,-16.522 -39.941,-16.522 -23.408,0 -39.798,16.522 -16.401,16.511 -16.401,39.93 0,23.419 16.467,39.809 16.467,16.39 39.809,16.39 z m 269.357,-228.657 q 23.419,0 39.314,-15.84 15.895,-15.84 15.895,-39.248 0,-23.419 -15.895,-39.941 -15.884,-16.522 -39.38,-16.522 -23.496,0 -40.436,16.522 -16.94,16.511 -16.94,40.007 0,23.496 17.017,39.259 17.017,15.763 40.425,15.763 z"
     id="path1"
     style="stroke-width:1.1;fill:#000000" />
</svg>
