<?xml version="1.0" encoding="UTF-8" standalone="no"?>
<svg
   height="128"
   version="1.1"
   width="128"
   id="svg13"
   xmlns="http://www.w3.org/2000/svg"
   xmlns:svg="http://www.w3.org/2000/svg">
  <defs
     id="defs1" />
  <path
     id="path19"
     style="fill:#4a90e2;stroke:none"
     d="M 128,64 A 64,64 0 0 1 64,128 64,64 0 0 1 0,64 64,64 0 0 1 64,0 64,64 0 0 1 128,64 Z" />
  <path
     id="circle2"
     style="opacity:0.3;fill:#2a6bb8;stroke:none"
     d="M 68,6 C 33.758346,6 6,33.758346 6,68 6.0541663,91.345774 19.217927,112.68196 40.058594,123.20312 47.657267,126.32372 55.78564,127.95232 64,128 99.346224,128 128,99.346224 128,64 127.996,55.842041 126.43189,47.760113 123.39258,40.189453 112.87704,19.237137 91.443041,6.0076293 68,6 Z" />
  <line
     stroke="#ffffff"
     stroke-width="2"
     x1="64"
     x2="14"
     y1="54"
     y2="34"
     id="line3" />
  <line
     stroke="#ffffff"
     stroke-width="2"
     x1="64"
     x2="114"
     y1="54"
     y2="34"
     id="line4" />
  <line
     stroke="#ffffff"
     stroke-width="2"
     x1="64"
     x2="14"
     y1="54"
     y2="94"
     id="line5" />
  <line
     stroke="#ffffff"
     stroke-width="2"
     x1="64"
     x2="114"
     y1="54"
     y2="94"
     id="line6" />
  <line
     stroke="#ffffff"
     stroke-width="2"
     x1="64"
     x2="64"
     y1="54"
     y2="4"
     id="line7" />
  <line
     stroke="#ffffff"
     stroke-width="2"
     x1="64"
     x2="64"
     y1="54"
     y2="124"
     id="line8" />
  <path
     id="circle8"
     style="fill:#ffffff;stroke-width:2"
     d="m 22,34 a 8,8 0 0 1 -8,8 8,8 0 0 1 -8,-8 8,8 0 0 1 8,-8 8,8 0 0 1 8,8 z" />
  <path
     id="circle9"
     style="fill:#ffffff;stroke-width:2"
     d="m 122,34 a 8,8 0 0 1 -8,8 8,8 0 0 1 -8,-8 8,8 0 0 1 8,-8 8,8 0 0 1 8,8 z" />
  <path
     id="circle10"
     style="fill:#ffffff;stroke-width:2"
     d="m 22,94 a 8,8 0 0 1 -8,8 8,8 0 0 1 -8,-8 8,8 0 0 1 8,-8 8,8 0 0 1 8,8 z" />
  <path
     id="circle11"
     style="fill:#ffffff;stroke-width:2"
     d="m 122,94 a 8,8 0 0 1 -8,8 8,8 0 0 1 -8,-8 8,8 0 0 1 8,-8 8,8 0 0 1 8,8 z" />
  <path
     id="circle12"
     style="fill:#ffffff;stroke:none"
     d="M 60.068359,0 A 8,8 0 0 0 56,6.9433594 8,8 0 0 0 64,14.943359 8,8 0 0 0 72,6.9433594 8,8 0 0 0 67.96875,0 Z" />
  <path
     id="circle13"
     style="fill:#ffffff;stroke:none"
     d="m 64,113.48438 a 8,8 0 0 0 -8,8 A 8,8 0 0 0 59.388672,128 h 9.222656 A 8,8 0 0 0 72,121.48438 a 8,8 0 0 0 -8,-8 z" />
  <rect
     fill="#ffffff"
     height="30"
     rx="5"
     ry="5"
     stroke="#ffffff"
     stroke-width="3"
     width="10"
     x="25.726238"
     y="98.167984"
     id="rect3"
     transform="rotate(-27.496275)"
     style="stroke:none" />
  <circle
     cx="64"
     cy="54"
     fill="#ffffff"
     r="30"
     stroke="#ffffff"
     stroke-width="3"
     id="circle3"
     style="stroke:none" />
  <circle
     cx="64"
     cy="54"
     fill="#ffffff"
     r="23.547651"
     stroke="#ffffff"
     stroke-width="2.35477"
     id="circle21"
     style="fill:#4185d6;fill-opacity:1;stroke:none" />
  <g
     id="g21"
     transform="matrix(0.92130518,0,0,0.92130518,2.7044147,2.1477928)"
     style="fill:#ffffff">
    <circle
       style="fill:#ffffff;fill-opacity:1;stroke:none;stroke-width:0.5"
       id="path21"
       cx="55.34375"
       cy="45.09375"
       r="5.09375" />
    <circle
       style="fill:#ffffff;fill-opacity:1;stroke:none;stroke-width:0.5"
       id="path21-4"
       cx="66.53125"
       cy="45.09375"
       r="5.09375" />
    <circle
       style="fill:#ffffff;fill-opacity:1;stroke:none;stroke-width:0.5"
       id="path21-3"
       cx="77.71875"
       cy="45.09375"
       r="5.09375" />
    <circle
       style="fill:#ffffff;fill-opacity:1;stroke:none;stroke-width:0.5"
       id="path21-2"
       cx="55.34375"
       cy="56.28125"
       r="5.09375" />
    <circle
       style="display:none;fill:#ffffff;fill-opacity:1;stroke:none;stroke-width:0.5"
       id="path21-6"
       cx="66.53125"
       cy="56.28125"
       r="5.09375" />
    <circle
       style="fill:#ffffff;fill-opacity:1;stroke:none;stroke-width:0.5"
       id="path21-5"
       cx="77.71875"
       cy="56.28125"
       r="5.09375" />
    <circle
       style="fill:#ffffff;fill-opacity:1;stroke:none;stroke-width:0.5"
       id="path21-61"
       cx="77.71875"
       cy="67.46875"
       r="5.09375" />
    <circle
       style="fill:#ffffff;fill-opacity:1;stroke:none;stroke-width:0.5"
       id="path21-9"
       cx="66.53125"
       cy="67.46875"
       r="5.09375" />
    <circle
       style="fill:#ffffff;fill-opacity:1;stroke:none;stroke-width:0.5"
       id="path21-7"
       cx="55.34375"
       cy="67.46875"
       r="5.09375" />
  </g>
  <text
     xml:space="preserve"
     style="font-size:10.6667px;font-family:Arial;-inkscape-font-specification:Arial;text-align:start;writing-mode:lr-tb;direction:ltr;text-anchor:start;white-space:pre;inline-size:9.21732;display:inline;fill:#ffffff;fill-opacity:1;stroke:none;stroke-width:0.5"
     x="42.072853"
     y="47.597126"
     id="text21"
     transform="translate(18.464182,10.285699)"><tspan
       x="42.072853"
       y="47.597126"
       id="tspan4"><tspan
         style="font-weight:900;-inkscape-font-specification:'Arial Heavy'"
         id="tspan3">2</tspan></tspan></text>
</svg>
