<?xml version="1.0" encoding="UTF-8" standalone="no"?>
<svg
   height="48px"
   viewBox="0 -960 960 960"
   width="48px"
   fill="#1f1f1f"
   version="1.1"
   id="svg1"
   sodipodi:docname="light_mode_48dp_1F1F1F_FILL1_wght500_GRAD0_opsz48.svg"
   inkscape:version="1.4.2 (ebf0e940d0, 2025-05-08)"
   xmlns:inkscape="http://www.inkscape.org/namespaces/inkscape"
   xmlns:sodipodi="http://sodipodi.sourceforge.net/DTD/sodipodi-0.dtd"
   xmlns="http://www.w3.org/2000/svg"
   xmlns:svg="http://www.w3.org/2000/svg">
  <defs
     id="defs1" />
  <sodipodi:namedview
     id="namedview1"
     pagecolor="#ffffff"
     bordercolor="#000000"
     borderopacity="0.25"
     inkscape:showpageshadow="2"
     inkscape:pageopacity="0.0"
     inkscape:pagecheckerboard="0"
     inkscape:deskcolor="#d1d1d1"
     inkscape:zoom="18.375"
     inkscape:cx="24"
     inkscape:cy="23.972789"
     inkscape:window-width="2494"
     inkscape:window-height="1371"
     inkscape:window-x="2626"
     inkscape:window-y="32"
     inkscape:window-maximized="1"
     inkscape:current-layer="svg1" />
  <path
     d="m 480,-270 q -87.15,0 -148.575,-61.425 Q 270,-392.85 270,-480 270,-567.15 331.425,-628.575 392.85,-690 480,-690 q 87.15,0 148.575,61.425 Q 690,-567.15 690,-480 q 0,87.15 -61.425,148.575 Q 567.15,-270 480,-270 Z M 190.2735,-444.2265 H 13.7265 v -71.547 h 176.547 z m 756,0 h -176.547 v -71.547 h 176.547 z m -502.047,-325.5 v -176.547 h 71.547 v 176.547 z m 0,756 v -176.547 h 71.547 v 176.547 z M 250.848,-660.621 140.073,-768.498 l 50.925,-52.479 107.331,110.523 z m 519.204,520.548 -109.431,-110.775 49.329,-49.329 109.977,108.423 z m -110.229,-569.877 108.675,-109.977 52.479,49.875 -109.473,109.431 z m -519.75,518.952 109.725,-109.431 50.379,50.379 -108.423,109.977 z"
     id="path1"
     style="fill:#000000;stroke-width:1.05" />
</svg>
