<?xml version="1.0" encoding="UTF-8" standalone="no"?>
<svg
   height="48px"
   viewBox="0 -960 960 960"
   width="48px"
   fill="#1f1f1f"
   version="1.1"
   id="svg1"
   sodipodi:docname="linked_camera_48dp_1F1F1F_FILL1_wght500_GRAD0_opsz48.svg"
   inkscape:version="1.4.2 (ebf0e940d0, 2025-05-08)"
   xmlns:inkscape="http://www.inkscape.org/namespaces/inkscape"
   xmlns:sodipodi="http://sodipodi.sourceforge.net/DTD/sodipodi-0.dtd"
   xmlns="http://www.w3.org/2000/svg"
   xmlns:svg="http://www.w3.org/2000/svg">
  <defs
     id="defs1" />
  <sodipodi:namedview
     id="namedview1"
     pagecolor="#ffffff"
     bordercolor="#000000"
     borderopacity="0.25"
     inkscape:showpageshadow="2"
     inkscape:pageopacity="0.0"
     inkscape:pagecheckerboard="0"
     inkscape:deskcolor="#d1d1d1"
     inkscape:zoom="18.375"
     inkscape:cx="24"
     inkscape:cy="23.972789"
     inkscape:window-width="2494"
     inkscape:window-height="1371"
     inkscape:window-x="2626"
     inkscape:window-y="32"
     inkscape:window-maximized="1"
     inkscape:current-layer="svg1" />
  <path
     d="m 871.061,-654.031 q 0,-91.201 -63.063,-156.31 -63.052,-65.12 -153.967,-65.12 v -51.249 q 113.652,0 193.171,79.53 79.508,79.541 79.508,193.149 z m -100.43,0 q 0,-49.5 -33.55,-83.6 -33.55,-34.1 -83.05,-34.1 v -54.538 q 72.237,0 122.375,50.545 50.127,50.556 45.463,121.693 z m -290.829,454.036 q 80.058,0 134.354,-54.23 54.285,-54.23 54.285,-134.145 0,-81.026 -54.23,-134.904 -54.23,-53.867 -134.145,-53.867 -81.026,0 -134.904,53.79 -53.867,53.79 -53.867,134.717 0,80.058 53.79,134.354 53.79,54.285 134.717,54.285 z m 0.066,-71.258 q -51.227,0 -84.271,-33.594 -33.044,-33.594 -33.044,-83.721 0,-51.227 33.044,-84.403 33.044,-33.176 84.271,-33.176 50.127,0 83.853,33.176 33.726,33.176 33.726,84.403 0,50.127 -33.726,83.721 -33.726,33.594 -83.853,33.594 z M 108.233,-33.29 q -30.36,0 -52.646,-22.297 Q 33.29,-77.873 33.29,-108.233 v -559.57 q 0,-29.37 22.297,-52.283 22.286,-22.924 52.646,-22.924 h 155.914 l 82.929,-95.7 h 262.922 v 110.979 q 49.533,0 83.633,34.1 34.1,34.1 34.1,83.6 H 926.71 v 501.798 q 0,30.36 -22.924,52.646 -22.913,22.297 -52.283,22.297 z"
     id="path1"
     style="fill:#000000;stroke-width:1.1" />
</svg>
