<?xml version="1.0" encoding="UTF-8" standalone="no"?>
<svg height="48px" viewBox="0 -960 960 960" width="48px" fill="#1f1f1f" version="1.1" id="svg1" sodipodi:docname="lock-alt-symbolic.svg" inkscape:version="1.4.2 (ebf0e940d0, 2025-05-08)" xmlns:inkscape="http://www.inkscape.org/namespaces/inkscape" xmlns:sodipodi="http://sodipodi.sourceforge.net/DTD/sodipodi-0.dtd" xmlns="http://www.w3.org/2000/svg" xmlns:svg="http://www.w3.org/2000/svg">
    <defs id="defs1" />
    <sodipodi:namedview id="namedview1" pagecolor="#ffffff" bordercolor="#000000" borderopacity="0.25" inkscape:showpageshadow="2" inkscape:pageopacity="0.0" inkscape:pagecheckerboard="0" inkscape:deskcolor="#d1d1d1" inkscape:zoom="18.375" inkscape:cx="24" inkscape:cy="23.972789" inkscape:window-width="2494" inkscape:window-height="1371" inkscape:window-x="2626" inkscape:window-y="32" inkscape:window-maximized="1" inkscape:current-layer="svg1" />
    <path d="m 209.1315,-33.603 q -29.505,0 -50.526,-21.0105 -21.0105,-21.021 -21.0105,-50.526 v -451.185 q 0,-29.61 21.0105,-50.694 21.021,-21.0945 50.526,-21.0945 h 68.481 v -95.2665 q 0,-84.3885 59.0835,-143.703 59.073,-59.3145 143.2305,-59.3145 84.1575,0 143.178,59.3145 59.031,59.3145 59.031,143.703 v 95.2665 h 68.481 q 29.61,0 50.694,21.0945 21.0945,21.084 21.0945,50.694 v 451.185 q 0,29.505 -21.0945,50.526 -21.084,21.0105 -50.694,21.0105 z m 270.921,-216.279 q 33.4215,0 57.0465,-23.1315 23.625,-23.1315 23.625,-55.6185 0,-31.5 -23.8035,-57.225 -23.8035,-25.725 -57.225,-25.725 -33.4215,0 -57.0465,25.725 -23.625,25.725 -23.625,57.75 0,32.025 23.8035,55.125 23.8035,23.1 57.225,23.1 z M 349.149,-628.113 h 261.45 v -95.214 q 0,-55.0095 -37.9575,-93.1455 -37.9575,-38.136 -92.589,-38.136 -54.621,0 -92.757,38.136 -38.1465,38.136 -38.1465,93.1455 z" id="path1" style="fill:#000000;stroke-width:1.05" />
</svg>