<?xml version="1.0" encoding="UTF-8" standalone="no"?>
<svg
   height="48px"
   viewBox="0 -960 960 960"
   width="48px"
   fill="#1f1f1f"
   version="1.1"
   id="svg1"
   sodipodi:docname="orbit-symbolic.svg"
   inkscape:version="1.4.2 (ebf0e940d0, 2025-05-08)"
   xmlns:inkscape="http://www.inkscape.org/namespaces/inkscape"
   xmlns:sodipodi="http://sodipodi.sourceforge.net/DTD/sodipodi-0.dtd"
   xmlns="http://www.w3.org/2000/svg"
   xmlns:svg="http://www.w3.org/2000/svg">
  <defs
     id="defs1" />
  <sodipodi:namedview
     id="namedview1"
     pagecolor="#ffffff"
     bordercolor="#000000"
     borderopacity="0.25"
     inkscape:showpageshadow="2"
     inkscape:pageopacity="0.0"
     inkscape:pagecheckerboard="0"
     inkscape:deskcolor="#d1d1d1"
     inkscape:zoom="18.375"
     inkscape:cx="23.972789"
     inkscape:cy="23.972789"
     inkscape:window-width="2494"
     inkscape:window-height="1371"
     inkscape:window-x="2626"
     inkscape:window-y="32"
     inkscape:window-maximized="1"
     inkscape:current-layer="svg1" />
  <path
     d="m 202.766,-51.461 q -62.92,0 -107.107,-44.187 -44.198,-44.176 -44.198,-107.085 0,-62.898 44.187,-107.25 44.176,-44.341 107.085,-44.341 62.898,0 107.25,44.385 44.341,44.385 44.341,107.173 0,23.43 -7.172,45.441 -7.172,22.022 -20.427,40.458 l -0.264,-23.958 q 36.047,16.236 75.119,24.354 39.072,8.118 78.298,8.118 155.672,0 263.703,-108.042 108.042,-108.031 108.042,-263.593 h 75.207 q 0,92.653 -35.167,174.152 -35.156,81.499 -95.623,141.911 -60.467,60.423 -141.944,95.469 -81.477,35.046 -174.108,35.046 -50.831,0 -99.407,-11.286 -48.565,-11.286 -94.765,-33.022 -18.689,13.123 -39.512,19.69 -20.823,6.567 -43.538,6.567 z m -0.022,-74.69 q 32.164,0 54.395,-22.22 22.242,-22.22 22.242,-54.373 0,-32.164 -22.22,-54.395 -22.22,-22.242 -54.384,-22.242 -32.153,0 -54.395,22.22 -22.231,22.22 -22.231,54.384 0,32.153 22.22,54.395 22.22,22.231 54.373,22.231 z M 480.01,-328.694 q -62.667,0 -106.997,-44.286 -44.319,-44.297 -44.319,-106.953 0,-62.656 44.286,-107.14 44.297,-44.473 106.953,-44.473 62.656,0 107.14,44.44 44.473,44.44 44.473,107.096 0,62.667 -44.44,106.997 -44.44,44.319 -107.096,44.319 z M 33.41,-479.988 q 0,-92.631 35.046,-174.108 35.046,-81.477 95.469,-141.944 60.412,-60.467 141.911,-95.623 81.499,-35.167 174.152,-35.167 50.831,0 99.407,11.418 48.565,11.418 94.765,32.901 18.656,-12.32 39.644,-18.744 20.988,-6.413 43.67,-6.413 62.26,0 106.227,44.033 43.967,44.044 43.967,106.359 0,62.315 -44,106.843 -44,44.517 -106.48,44.517 -62.491,0 -106.887,-44.385 -44.385,-44.385 -44.385,-107.173 0,-23.331 7.172,-45.265 7.172,-21.934 20.427,-40.634 v 24.222 q -36.047,-16.236 -75.119,-24.354 -39.072,-8.118 -78.298,-8.118 -155.672,0 -263.703,108.042 -108.042,108.031 -108.042,263.593 H 33.41 Z m 723.921,-200.871 q 31.57,0 53.482,-22.341 21.912,-22.33 21.912,-54.241 0,-31.46 -21.956,-53.372 -21.967,-21.912 -53.339,-21.912 -31.372,0 -53.977,21.967 -22.594,21.967 -22.594,53.35 0,31.614 22.22,54.087 22.22,22.462 54.252,22.462 z m -554.565,478.093 z m 554.708,-554.708 z"
     id="path1"
     style="stroke-width:1.1;fill:#000000" />
</svg>
