<?xml version="1.0" encoding="UTF-8" standalone="no"?>
<svg
   height="48px"
   viewBox="0 -960 960 960"
   width="48px"
   fill="#1f1f1f"
   version="1.1"
   id="svg1"
   sodipodi:docname="psychology-symbolic.svg"
   inkscape:version="1.4.2 (ebf0e940d0, 2025-05-08)"
   xmlns:inkscape="http://www.inkscape.org/namespaces/inkscape"
   xmlns:sodipodi="http://sodipodi.sourceforge.net/DTD/sodipodi-0.dtd"
   xmlns="http://www.w3.org/2000/svg"
   xmlns:svg="http://www.w3.org/2000/svg">
  <defs
     id="defs1" />
  <sodipodi:namedview
     id="namedview1"
     pagecolor="#ffffff"
     bordercolor="#000000"
     borderopacity="0.25"
     inkscape:showpageshadow="2"
     inkscape:pageopacity="0.0"
     inkscape:pagecheckerboard="0"
     inkscape:deskcolor="#d1d1d1"
     inkscape:zoom="18.375"
     inkscape:cx="24"
     inkscape:cy="23.972789"
     inkscape:window-width="2494"
     inkscape:window-height="1371"
     inkscape:window-x="2626"
     inkscape:window-y="32"
     inkscape:window-maximized="1"
     inkscape:current-layer="svg1" />
  <path
     d="m 419.27586,-357.962 h 69 l 3.45,-50.6 q 13.8,-2.3 25.875,-9.775 12.075,-7.475 21.275,-16.675 l 48.024,16.1 32.476,-55.2 -34.5,-27.6 q 5.75,-16.1 5.75,-33.35 0,-17.25 -5.75,-33.35 l 34.5,-27.6 -32.476,-55.2 -48.024,16.1 q -9.2,-9.2 -21.85,-16.1 -12.65,-6.9 -25.3,-10.35 l -3.45,-50.6 h -69 l -3.45,50.6 q -12.65,3.45 -25.3,10.35 -12.65,6.9 -21.85,16.1 l -47.748,-16.1 -32.752,55.2 34.5,27.6 q -5.75,16.1 -5.75,33.35 0,17.25 5.75,33.35 l -34.5,27.6 32.752,55.2 47.748,-16.1 q 9.2,9.2 21.275,16.675 12.075,7.475 25.875,9.775 z m 34.5,-96.6 q -33.35,0 -56.925,-23.575 -23.575,-23.575 -23.575,-56.925 0,-33.35 23.575,-56.925 23.575,-23.575 56.925,-23.575 33.35,0 56.925,23.575 23.575,23.575 23.575,56.925 0,33.35 -23.575,56.925 -23.575,23.575 -56.925,23.575 z m -280.899,440.749 v -201.1005 q -65.55,-60.628 -101.775,-141.3695 -36.224996,-80.753 -36.224996,-169.579 0,-175.2485 122.394496,-297.7925 122.406,-122.5325 297.6545,-122.5325 145.6705,0 258.3015,86.043 112.6195,86.0315 146.7975,223.652 l 63.526,252.356 q 5.152,18.5725 -6.578,33.4535 -11.7185,14.8695 -31.1765,14.8695 h -102.5455 v 151.6505 q 0,32.8785 -22.8735,55.614 -22.8735,22.7355 -55.752,22.7355 h -105.3745 v 92 z"
     id="path1"
     style="fill:#000000;stroke-width:1.15" />
</svg>
