<?xml version="1.0" encoding="UTF-8" standalone="no"?>
<svg
   height="48px"
   viewBox="0 -960 960 960"
   width="48px"
   fill="#1f1f1f"
   version="1.1"
   id="svg1"
   sodipodi:docname="rocket-launch-symbolic.svg"
   inkscape:version="1.4.2 (ebf0e940d0, 2025-05-08)"
   xmlns:inkscape="http://www.inkscape.org/namespaces/inkscape"
   xmlns:sodipodi="http://sodipodi.sourceforge.net/DTD/sodipodi-0.dtd"
   xmlns="http://www.w3.org/2000/svg"
   xmlns:svg="http://www.w3.org/2000/svg">
  <defs
     id="defs1" />
  <sodipodi:namedview
     id="namedview1"
     pagecolor="#ffffff"
     bordercolor="#000000"
     borderopacity="0.25"
     inkscape:showpageshadow="2"
     inkscape:pageopacity="0.0"
     inkscape:pagecheckerboard="0"
     inkscape:deskcolor="#d1d1d1"
     inkscape:zoom="18.375"
     inkscape:cx="23.972789"
     inkscape:cy="23.972789"
     inkscape:window-width="2494"
     inkscape:window-height="1371"
     inkscape:window-x="2626"
     inkscape:window-y="32"
     inkscape:window-maximized="1"
     inkscape:current-layer="svg1" />
  <path
     d="m 46.302761,-560.94515 187.429009,-187.957 q 17.237,-17.237 40.238,-24.233 23.012,-6.996 47.641,-2.332 l 85.492,15.4 q -61.82,69.773 -100.408,132.803 -38.577,63.019 -72.325,147.048 z m 231.924009,100.001 q 33.121,-84.766 79.409,-157.036 46.277,-72.259 103.741,-129.723 96.536,-96.536 222.684,-144.386 126.137,-47.85 237.094,-29.678 18.436,111.221 -28.864,237.226 -47.3,126.016 -143.836,222.552 -57.728,57.728 -130.537,104.005 -72.82,46.288 -157.322,79.409 z m 322.498,-140.393 q 21.736,21.736 53.526,21.736 31.79,0 53.526,-21.736 21.483,-21.736 21.483,-53.394 0,-31.658 -21.483,-53.394 -21.736,-21.483 -53.526,-21.483 -31.79,0 -53.526,21.483 -21.472,21.736 -21.472,53.394 0,31.658 21.472,53.394 z m -39.292,554.432993 -81.829,-188.077993 q 84.029,-33.484 146.916,-72.193 62.898,-38.72 132.935,-100.276 l 15.4,85.492 q 4.928,24.629 -2.2,48.059 -7.128,23.419 -24.365,40.392 z m -442.365,-266.562993 q 40.337,-40.337 97.834,-40.634 57.508,-0.286 97.845,39.798 40.073,40.337 40.205,97.834 0.132,57.508 -40.205,97.845 -30.437,30.436998 -94.886,50.060998 -64.449,19.623995 -186.186009,35.331995 15.708,-121.736993 35.332005,-185.767993 19.613,-64.031 50.061004,-94.468 z"
     id="path1"
     style="fill:#000000;stroke-width:1.1" />
</svg>
