<?xml version="1.0" encoding="UTF-8" standalone="no"?>
<svg
   height="48px"
   viewBox="0 -960 960 960"
   width="48px"
   fill="#1f1f1f"
   version="1.1"
   id="svg1"
   sodipodi:docname="rss_feed_48dp_1F1F1F_FILL0_wght500_GRAD0_opsz48.svg"
   inkscape:version="1.4.2 (ebf0e940d0, 2025-05-08)"
   xmlns:inkscape="http://www.inkscape.org/namespaces/inkscape"
   xmlns:sodipodi="http://sodipodi.sourceforge.net/DTD/sodipodi-0.dtd"
   xmlns="http://www.w3.org/2000/svg"
   xmlns:svg="http://www.w3.org/2000/svg">
  <defs
     id="defs1" />
  <sodipodi:namedview
     id="namedview1"
     pagecolor="#ffffff"
     bordercolor="#000000"
     borderopacity="0.25"
     inkscape:showpageshadow="2"
     inkscape:pageopacity="0.0"
     inkscape:pagecheckerboard="0"
     inkscape:deskcolor="#d1d1d1"
     inkscape:zoom="18.375"
     inkscape:cx="24"
     inkscape:cy="23.972789"
     inkscape:window-width="2494"
     inkscape:window-height="1371"
     inkscape:window-x="2626"
     inkscape:window-y="32"
     inkscape:window-maximized="1"
     inkscape:current-layer="svg1" />
  <path
     d="m 152.046,-60.378 q -38.004,0 -64.836,-27.108 -26.832,-27.108 -26.832,-65.184 0,-38.064 26.976,-65.04 26.976,-26.976 64.848,-26.976 38.112,0 65.304,27.024 27.18,27.036 27.18,65.184 0,38.148 -27.216,65.124 -27.204,26.976 -65.424,26.976 z m 632.976,0 q 0,-150.78 -56.484,-281.724 -56.496,-130.944 -155.844,-230.448 -99.648,-99.204 -230.676,-155.7 -131.04,-56.484 -281.64,-56.484 v -114.888 q 174.996,0 326.868,65.436 151.86,65.436 266.688,180.252 114.816,114.828 180.252,266.688 65.436,151.872 65.436,326.868 z m -322.8,0 q 0,-84.576 -31.248,-159.072 -31.236,-74.484 -86.016,-131.508 -54.564,-56.688 -127.332,-88.776 -72.768,-32.088 -157.248,-32.088 v -114.6 q 108.888,0 202.512,41.064 93.624,41.052 163.632,113.052 70.008,72.012 110.304,167.52 40.284,95.508 40.284,204.408 z"
     id="path1"
     style="fill:#000000;stroke-width:1.2" />
</svg>
