<?xml version="1.0" encoding="UTF-8" standalone="no"?>
<svg height="48px" viewBox="0 -960 960 960" width="48px" fill="#1f1f1f" version="1.1" id="svg1" sodipodi:docname="terminal-alt-symbolic.svg" inkscape:version="1.4.2 (ebf0e940d0, 2025-05-08)" xmlns:inkscape="http://www.inkscape.org/namespaces/inkscape" xmlns:sodipodi="http://sodipodi.sourceforge.net/DTD/sodipodi-0.dtd" xmlns="http://www.w3.org/2000/svg" xmlns:svg="http://www.w3.org/2000/svg">
    <defs id="defs1" />
    <sodipodi:namedview id="namedview1" pagecolor="#ffffff" bordercolor="#000000" borderopacity="0.25" inkscape:showpageshadow="2" inkscape:pageopacity="0.0" inkscape:pagecheckerboard="0" inkscape:deskcolor="#d1d1d1" inkscape:zoom="18.375" inkscape:cx="24" inkscape:cy="23.972789" inkscape:window-width="2494" inkscape:window-height="1371" inkscape:window-x="2626" inkscape:window-y="32" inkscape:window-maximized="1" inkscape:current-layer="svg1" />
    <path d="m 108.233,-121.29 q -30.36,0 -52.646,-22.297 -22.297,-22.286 -22.297,-52.646 v -567.27 q 0,-30.47 22.297,-52.833 22.286,-22.374 52.646,-22.374 h 743.27 q 30.47,0 52.833,22.374 22.374,22.363 22.374,52.833 v 567.27 q 0,30.36 -22.374,52.646 -22.363,22.297 -52.833,22.297 z m 0,-74.943 h 743.27 v -474.87 h -743.27 z m 173.635,-76.835 -46.2,-46.2 113.3,-114.4 -114.4,-114.4 47.3,-46.2 160.6,160.6 z m 209,4.4 v -66 h 242 v 66 z" id="path1" style="fill:#000000;stroke-width:1.1" />
</svg>