<?xml version="1.0" encoding="UTF-8" standalone="no"?>
<svg
   height="48px"
   viewBox="0 -960 960 960"
   width="48px"
   fill="#1f1f1f"
   version="1.1"
   id="svg1"
   sodipodi:docname="token-symbolic.svg"
   inkscape:version="1.4.2 (ebf0e940d0, 2025-05-08)"
   xmlns:inkscape="http://www.inkscape.org/namespaces/inkscape"
   xmlns:sodipodi="http://sodipodi.sourceforge.net/DTD/sodipodi-0.dtd"
   xmlns="http://www.w3.org/2000/svg"
   xmlns:svg="http://www.w3.org/2000/svg">
  <defs
     id="defs1" />
  <sodipodi:namedview
     id="namedview1"
     pagecolor="#ffffff"
     bordercolor="#000000"
     borderopacity="0.25"
     inkscape:showpageshadow="2"
     inkscape:pageopacity="0.0"
     inkscape:pagecheckerboard="0"
     inkscape:deskcolor="#d1d1d1"
     inkscape:zoom="18.375"
     inkscape:cx="24"
     inkscape:cy="23.972789"
     inkscape:window-width="2494"
     inkscape:window-height="1371"
     inkscape:window-x="2626"
     inkscape:window-y="32"
     inkscape:window-maximized="1"
     inkscape:current-layer="svg1" />
  <path
     d="M 348.348,-585.9495 100.6495,-731.344 480,-936.55 859.3505,-731.344 611.652,-585.9495 q -26.726,-26.174 -60.789,-42.573 -34.063,-16.399 -70.863,-16.399 -36.8,0 -70.863,16.399 -34.063,16.399 -60.789,42.573 z M 442.4755,-23.45 59.675,-242.7205 V -669.497 l 252.2985,149.9945 q -4.324,12.1095 -5.911,24.9205 -1.587,12.811 -1.587,25.185 0,61.502 38.962,108.192 38.962,46.6785 99.038,63.0545 z M 480,-368.9215 q -42.32,0 -71.4035,-29.072 -29.072,-29.0835 -29.072,-71.4035 0,-42.32 29.072,-71.4035 29.0835,-29.072 71.4035,-29.072 42.32,0 71.4035,29.072 29.072,29.0835 29.072,71.4035 0,42.32 -29.072,71.4035 -29.0835,29.072 -71.4035,29.072 z M 517.5245,-23.45 v -274.4245 q 60.076,-16.376 99.038,-63.1925 38.962,-46.828 38.962,-108.33 0,-12.374 -1.587,-25.185 -1.587,-12.811 -5.635,-24.9205 L 900.325,-669.497 v 426.7765 z"
     id="path1"
     style="fill:#000000;stroke-width:1.15" />
</svg>
